<?xml version="1.0" standalone="no"?>
<!DOCTYPE svg PUBLIC "-//W3C//DTD SVG 20010904//EN"
 "http://www.w3.org/TR/2001/REC-SVG-20010904/DTD/svg10.dtd">
<svg version="1.0" xmlns="http://www.w3.org/2000/svg"
 width="302.000000pt" height="167.000000pt" viewBox="0 0 302.000000 167.000000"
 preserveAspectRatio="xMidYMid meet">

<g transform="translate(0.000000,167.000000) scale(0.100000,-0.100000)"
fill="#000000" stroke="none">
<path d="M1564 1401 c-42 -26 -64 -59 -64 -98 0 -17 -7 -38 -15 -47 -9 -8 -22
-31 -30 -51 l-15 -35 -461 0 -461 0 -29 -30 -30 -29 3 -371 3 -372 24 -19 c22
-18 54 -19 1021 -19 967 0 999 1 1021 19 l24 19 3 372 3 371 -30 29 -29 30
-462 0 -461 0 -14 34 c-8 19 -19 37 -25 41 -5 3 -10 24 -10 46 0 31 7 47 29
70 l29 29 486 0 c425 0 486 2 486 15 0 13 -60 15 -482 15 -458 0 -485 -1 -514
-19z m-919 -386 l0 -40 -50 0 c-47 0 -50 1 -53 28 -6 50 3 58 55 55 l48 -3 0
-40z m160 0 l0 -40 -52 -3 -53 -3 0 46 0 46 53 -3 52 -3 0 -40z m160 0 l0 -40
-52 -3 -53 -3 0 46 0 46 53 -3 52 -3 0 -40z m165 0 l0 -45 -55 0 -55 0 0 45 0
45 55 0 55 0 0 -45z m160 0 l0 -45 -55 0 -55 0 0 45 0 45 55 0 55 0 0 -45z
m160 0 l0 -45 -55 0 -55 0 0 45 0 45 55 0 55 0 0 -45z m160 0 l0 -45 -55 0
-55 0 0 45 0 45 55 0 55 0 0 -45z m160 0 l0 -45 -55 0 -55 0 0 45 0 45 55 0
55 0 0 -45z m160 0 l0 -45 -55 0 -55 0 0 45 0 45 55 0 55 0 0 -45z m160 0 l0
-45 -55 0 -55 0 0 45 0 45 55 0 55 0 0 -45z m160 0 l0 -45 -55 0 -55 0 0 45 0
45 55 0 55 0 0 -45z m225 0 l0 -40 -87 -3 -88 -3 0 46 0 46 88 -3 87 -3 0 -40z
m-1767 -132 l-3 -48 -80 0 -80 0 -3 33 c-6 58 -1 62 88 62 l81 0 -3 -47z m160
0 l-3 -48 -47 -3 -48 -3 0 50 0 51 51 0 50 0 -3 -47z m160 0 l-3 -48 -47 -3
-48 -3 0 50 0 51 51 0 50 0 -3 -47z m162 -3 l0 -50 -50 0 -50 0 0 50 0 50 50
0 50 0 0 -50z m160 0 l0 -50 -50 0 -50 0 0 50 0 50 50 0 50 0 0 -50z m160 0
l0 -50 -50 0 -50 0 0 50 0 50 50 0 50 0 0 -50z m160 -1 l0 -50 -47 3 -48 3 -3
48 -3 47 50 0 51 0 0 -51z m160 0 l0 -50 -47 3 -48 3 -3 48 -3 47 50 0 51 0 0
-51z m161 47 c2 -3 3 -25 1 -51 l-4 -46 -47 3 -46 3 -3 48 -3 47 49 0 c27 0
51 -2 53 -4z m159 -47 l0 -50 -47 3 -48 3 -3 48 -3 47 50 0 51 0 0 -51z m165
1 l0 -45 -50 0 -50 0 -3 48 -3 48 53 -3 53 -3 0 -45z m160 0 l0 -45 -50 0 -50
0 -3 48 -3 48 53 -3 53 -3 0 -45z m-1680 -130 l0 -45 -125 0 -125 0 -3 33 c-6
62 -5 63 130 60 l123 -3 0 -45z m163 -3 l3 -48 -53 3 c-52 3 -53 4 -56 36 -5
55 2 63 55 60 l48 -3 3 -48z m157 3 l0 -45 -52 -3 -53 -3 0 44 c0 24 3 47 7
51 4 4 28 6 53 4 l45 -3 0 -45z m160 0 l0 -45 -52 -3 -53 -3 0 44 c0 24 3 47
7 51 4 4 28 6 53 4 l45 -3 0 -45z m160 0 l0 -45 -52 -3 -53 -3 0 44 c0 24 3
47 7 51 4 4 28 6 53 4 l45 -3 0 -45z m163 -3 l3 -48 -53 3 c-52 3 -53 4 -56
36 -5 55 2 63 55 60 l48 -3 3 -48z m160 0 l3 -48 -53 3 c-52 3 -53 4 -56 36
-5 55 2 63 55 60 l48 -3 3 -48z m160 0 l3 -48 -53 3 c-52 3 -53 4 -56 36 -5
55 2 63 55 60 l48 -3 3 -48z m160 0 l3 -48 -53 3 c-52 3 -53 4 -56 36 -5 55 2
63 55 60 l48 -3 3 -48z m160 0 l3 -48 -53 3 c-52 3 -53 4 -56 36 -5 55 2 63
55 60 l48 -3 3 -48z m237 3 l0 -45 -90 0 -90 0 -3 33 c-6 60 -2 63 95 60 l88
-3 0 -45z m-1595 -135 l0 -45 -167 2 -168 3 -3 28 c-7 57 -7 57 173 57 l165 0
0 -45z m160 -1 l0 -45 -52 3 c-50 3 -53 5 -56 31 -6 49 3 57 58 57 l50 0 0
-46z m160 0 l0 -45 -52 3 c-50 3 -53 5 -56 31 -6 49 3 57 58 57 l50 0 0 -46z
m160 0 l0 -45 -52 3 c-50 3 -53 5 -56 31 -6 49 3 57 58 57 l50 0 0 -46z m160
1 l0 -45 -49 0 -49 0 -4 41 c-2 22 -2 42 1 45 2 2 26 4 53 4 l48 0 0 -45z
m160 0 l0 -45 -50 0 -50 0 0 45 0 45 50 0 50 0 0 -45z m160 0 l0 -45 -50 0
-50 0 0 45 0 45 50 0 50 0 0 -45z m160 0 l0 -45 -50 0 -50 0 0 45 0 45 50 0
50 0 0 -45z m160 0 l0 -45 -50 0 -50 0 0 45 0 45 50 0 50 0 0 -45z m315 0 l0
-40 -130 0 -130 0 -3 28 c-7 57 -4 58 135 55 l128 -3 0 -40z m-1727 -132 l-3
-48 -100 0 -100 0 -3 33 c-6 60 -3 62 108 62 l101 0 -3 -47z m160 0 l-3 -48
-50 0 c-49 0 -50 0 -53 33 -5 54 2 62 58 62 l51 0 -3 -47z m160 0 l-3 -48 -50
0 c-49 0 -50 0 -53 33 -5 54 2 62 58 62 l51 0 -3 -47z m737 -3 l0 -45 -336 -3
-337 -2 -4 46 c-2 25 -1 47 1 50 3 2 156 3 340 2 l336 -3 0 -45z m163 3 l-3
-48 -50 0 c-49 0 -50 0 -53 33 -5 54 2 62 58 62 l51 0 -3 -47z m160 0 l-3 -48
-47 -3 -48 -3 0 50 0 51 51 0 50 0 -3 -47z m162 -3 l0 -50 -50 0 -50 0 0 50 0
50 50 0 50 0 0 -50z m185 0 l0 -45 -62 -3 -63 -3 0 51 0 51 63 -3 62 -3 0 -45z"/>
</g>
</svg>
